<mxfile host="Electron" modified="2023-04-14T17:25:22.177Z" agent="Mozilla/5.0 (X11; Linux x86_64) AppleWebKit/537.36 (KHTML, like Gecko) draw.io/21.1.2 Chrome/106.0.5249.199 Electron/21.4.3 Safari/537.36" etag="rmS95wul71bm1V1NaHoG" version="21.1.2" type="device">
  <diagram name="Page-1" id="T3zgl7tHg-XdywimSlLe">
    <mxGraphModel dx="3187" dy="7864" grid="1" gridSize="10" guides="1" tooltips="1" connect="1" arrows="1" fold="1" page="1" pageScale="1" pageWidth="6000" pageHeight="6000" math="0" shadow="0">
      <root>
        <mxCell id="0" />
        <mxCell id="1" parent="0" />
        <mxCell id="6bZn3hYEf9uluFe8qO5s-36" value="" style="rounded=1;whiteSpace=wrap;html=1;fillColor=#f8cecc;strokeColor=#b85450;fontSize=24;fontStyle=0;strokeWidth=3;" vertex="1" parent="1">
          <mxGeometry x="10" y="-430" width="660" height="1790" as="geometry" />
        </mxCell>
        <mxCell id="6bZn3hYEf9uluFe8qO5s-26" style="edgeStyle=orthogonalEdgeStyle;rounded=0;orthogonalLoop=1;jettySize=auto;html=1;exitX=0.5;exitY=1;exitDx=0;exitDy=0;entryX=0.5;entryY=0;entryDx=0;entryDy=0;fontSize=24;fontStyle=0;strokeWidth=3;" edge="1" parent="1" source="6bZn3hYEf9uluFe8qO5s-1" target="6bZn3hYEf9uluFe8qO5s-25">
          <mxGeometry relative="1" as="geometry" />
        </mxCell>
        <mxCell id="6bZn3hYEf9uluFe8qO5s-1" value="Split image into&lt;br&gt;256 x 256 pixel tiles" style="rounded=1;whiteSpace=wrap;html=1;fontSize=24;fillColor=#f5f5f5;fontColor=#333333;strokeColor=#666666;fontStyle=0;strokeWidth=3;" vertex="1" parent="1">
          <mxGeometry x="160" y="-200" width="360" height="80" as="geometry" />
        </mxCell>
        <mxCell id="6bZn3hYEf9uluFe8qO5s-23" style="edgeStyle=orthogonalEdgeStyle;rounded=0;orthogonalLoop=1;jettySize=auto;html=1;exitX=0.5;exitY=1;exitDx=0;exitDy=0;entryX=0.5;entryY=0;entryDx=0;entryDy=0;fontSize=24;fontStyle=0;strokeWidth=3;" edge="1" parent="1" source="6bZn3hYEf9uluFe8qO5s-2" target="6bZn3hYEf9uluFe8qO5s-18">
          <mxGeometry relative="1" as="geometry" />
        </mxCell>
        <mxCell id="6bZn3hYEf9uluFe8qO5s-2" value="Colour transform &lt;br&gt;to OKLab" style="rounded=1;whiteSpace=wrap;html=1;fontSize=24;fillColor=#f5f5f5;fontColor=#333333;strokeColor=#666666;fontStyle=0;strokeWidth=3;" vertex="1" parent="1">
          <mxGeometry x="160" y="200" width="360" height="80" as="geometry" />
        </mxCell>
        <mxCell id="6bZn3hYEf9uluFe8qO5s-11" style="edgeStyle=orthogonalEdgeStyle;rounded=0;orthogonalLoop=1;jettySize=auto;html=1;exitX=0.5;exitY=1;exitDx=0;exitDy=0;entryX=0.5;entryY=0;entryDx=0;entryDy=0;fontSize=24;fontStyle=0;strokeWidth=3;" edge="1" parent="1" source="6bZn3hYEf9uluFe8qO5s-3" target="6bZn3hYEf9uluFe8qO5s-4">
          <mxGeometry relative="1" as="geometry" />
        </mxCell>
        <mxCell id="6bZn3hYEf9uluFe8qO5s-3" value="8x8 DCT and &lt;br&gt;Quantisation" style="rounded=1;whiteSpace=wrap;html=1;fontSize=24;fillColor=#f5f5f5;fontColor=#333333;strokeColor=#666666;fontStyle=0;strokeWidth=3;" vertex="1" parent="1">
          <mxGeometry x="160" y="600" width="360" height="80" as="geometry" />
        </mxCell>
        <mxCell id="6bZn3hYEf9uluFe8qO5s-12" style="edgeStyle=orthogonalEdgeStyle;rounded=0;orthogonalLoop=1;jettySize=auto;html=1;exitX=0.5;exitY=1;exitDx=0;exitDy=0;entryX=0.5;entryY=0;entryDx=0;entryDy=0;fontSize=24;fontStyle=0;strokeWidth=3;" edge="1" parent="1" source="6bZn3hYEf9uluFe8qO5s-4" target="6bZn3hYEf9uluFe8qO5s-5">
          <mxGeometry relative="1" as="geometry" />
        </mxCell>
        <mxCell id="6bZn3hYEf9uluFe8qO5s-4" value="Calculate Residue" style="rounded=1;whiteSpace=wrap;html=1;fontSize=24;fillColor=#f5f5f5;fontColor=#333333;strokeColor=#666666;fontStyle=0;strokeWidth=3;" vertex="1" parent="1">
          <mxGeometry x="160" y="740" width="360" height="80" as="geometry" />
        </mxCell>
        <mxCell id="6bZn3hYEf9uluFe8qO5s-13" style="edgeStyle=orthogonalEdgeStyle;rounded=0;orthogonalLoop=1;jettySize=auto;html=1;exitX=0.5;exitY=1;exitDx=0;exitDy=0;entryX=0.5;entryY=0;entryDx=0;entryDy=0;fontSize=24;fontStyle=0;strokeWidth=3;" edge="1" parent="1" source="6bZn3hYEf9uluFe8qO5s-5" target="6bZn3hYEf9uluFe8qO5s-6">
          <mxGeometry relative="1" as="geometry" />
        </mxCell>
        <mxCell id="6bZn3hYEf9uluFe8qO5s-5" value="Split Coeffecients: &lt;br&gt;DC, LL, LH, HL, HH" style="rounded=1;whiteSpace=wrap;html=1;fontSize=24;fillColor=#f5f5f5;fontColor=#333333;strokeColor=#666666;fontStyle=0;strokeWidth=3;" vertex="1" parent="1">
          <mxGeometry x="160" y="880" width="360" height="80" as="geometry" />
        </mxCell>
        <mxCell id="6bZn3hYEf9uluFe8qO5s-14" style="edgeStyle=orthogonalEdgeStyle;rounded=0;orthogonalLoop=1;jettySize=auto;html=1;exitX=0.5;exitY=1;exitDx=0;exitDy=0;entryX=0.5;entryY=0;entryDx=0;entryDy=0;fontSize=24;fontStyle=0;strokeWidth=3;" edge="1" parent="1" source="6bZn3hYEf9uluFe8qO5s-6" target="6bZn3hYEf9uluFe8qO5s-7">
          <mxGeometry relative="1" as="geometry" />
        </mxCell>
        <mxCell id="6bZn3hYEf9uluFe8qO5s-6" value="DC Prediction and &lt;br&gt;Entropy Coding" style="rounded=1;whiteSpace=wrap;html=1;fontSize=24;fillColor=#f5f5f5;fontColor=#333333;strokeColor=#666666;fontStyle=0;strokeWidth=3;" vertex="1" parent="1">
          <mxGeometry x="160" y="1020" width="360" height="80" as="geometry" />
        </mxCell>
        <mxCell id="6bZn3hYEf9uluFe8qO5s-7" value="Forward Error Correction" style="rounded=1;whiteSpace=wrap;html=1;fontSize=24;fillColor=#f5f5f5;fontColor=#333333;strokeColor=#666666;fontStyle=0;strokeWidth=3;" vertex="1" parent="1">
          <mxGeometry x="160" y="1160" width="360" height="80" as="geometry" />
        </mxCell>
        <mxCell id="6bZn3hYEf9uluFe8qO5s-20" style="edgeStyle=orthogonalEdgeStyle;rounded=0;orthogonalLoop=1;jettySize=auto;html=1;exitX=0.5;exitY=1;exitDx=0;exitDy=0;entryX=0.5;entryY=0;entryDx=0;entryDy=0;fontSize=24;fontStyle=0;strokeWidth=3;" edge="1" parent="1" source="6bZn3hYEf9uluFe8qO5s-18" target="6bZn3hYEf9uluFe8qO5s-3">
          <mxGeometry relative="1" as="geometry" />
        </mxCell>
        <mxCell id="6bZn3hYEf9uluFe8qO5s-39" style="edgeStyle=orthogonalEdgeStyle;rounded=0;orthogonalLoop=1;jettySize=auto;html=1;exitX=1;exitY=0.5;exitDx=0;exitDy=0;entryX=1;entryY=0.5;entryDx=0;entryDy=0;strokeWidth=3;fontStyle=0;fontSize=24;" edge="1" parent="1" source="6bZn3hYEf9uluFe8qO5s-18" target="6bZn3hYEf9uluFe8qO5s-5">
          <mxGeometry relative="1" as="geometry">
            <Array as="points">
              <mxPoint x="600" y="440" />
              <mxPoint x="600" y="920" />
            </Array>
          </mxGeometry>
        </mxCell>
        <mxCell id="6bZn3hYEf9uluFe8qO5s-18" value="Is input&lt;br style=&quot;font-size: 24px;&quot;&gt;JPEG?" style="rhombus;whiteSpace=wrap;html=1;fontSize=24;fillColor=#f5f5f5;fontColor=#333333;strokeColor=#666666;fontStyle=0;strokeWidth=3;" vertex="1" parent="1">
          <mxGeometry x="240" y="340" width="200" height="200" as="geometry" />
        </mxCell>
        <mxCell id="6bZn3hYEf9uluFe8qO5s-21" value="No" style="text;html=1;strokeColor=none;fillColor=none;align=center;verticalAlign=middle;whiteSpace=wrap;rounded=0;fontSize=24;fontStyle=0;strokeWidth=3;" vertex="1" parent="1">
          <mxGeometry x="360" y="540" width="60" height="30" as="geometry" />
        </mxCell>
        <mxCell id="6bZn3hYEf9uluFe8qO5s-22" value="Yes" style="text;html=1;strokeColor=none;fillColor=none;align=center;verticalAlign=middle;whiteSpace=wrap;rounded=0;fontSize=24;fontStyle=0;strokeWidth=3;" vertex="1" parent="1">
          <mxGeometry x="460" y="400" width="60" height="30" as="geometry" />
        </mxCell>
        <mxCell id="6bZn3hYEf9uluFe8qO5s-27" style="edgeStyle=orthogonalEdgeStyle;rounded=0;orthogonalLoop=1;jettySize=auto;html=1;exitX=0.5;exitY=1;exitDx=0;exitDy=0;entryX=0.5;entryY=0;entryDx=0;entryDy=0;fontSize=24;fontStyle=0;strokeWidth=3;" edge="1" parent="1" source="6bZn3hYEf9uluFe8qO5s-25" target="6bZn3hYEf9uluFe8qO5s-2">
          <mxGeometry relative="1" as="geometry" />
        </mxCell>
        <mxCell id="6bZn3hYEf9uluFe8qO5s-33" style="edgeStyle=orthogonalEdgeStyle;rounded=0;orthogonalLoop=1;jettySize=auto;html=1;exitX=1;exitY=0.5;exitDx=0;exitDy=0;entryX=1;entryY=0.5;entryDx=0;entryDy=0;fontSize=24;fontStyle=0;strokeWidth=3;" edge="1" parent="1" source="6bZn3hYEf9uluFe8qO5s-25" target="6bZn3hYEf9uluFe8qO5s-3">
          <mxGeometry relative="1" as="geometry">
            <Array as="points">
              <mxPoint x="560" y="40" />
              <mxPoint x="560" y="640" />
            </Array>
          </mxGeometry>
        </mxCell>
        <mxCell id="6bZn3hYEf9uluFe8qO5s-25" value="Is input &lt;br style=&quot;font-size: 24px;&quot;&gt;RGB?" style="rhombus;whiteSpace=wrap;html=1;fontSize=24;fillColor=#f5f5f5;fontColor=#333333;strokeColor=#666666;fontStyle=0;strokeWidth=3;" vertex="1" parent="1">
          <mxGeometry x="240" y="-60" width="200" height="200" as="geometry" />
        </mxCell>
        <mxCell id="6bZn3hYEf9uluFe8qO5s-30" value="No" style="text;html=1;strokeColor=none;fillColor=none;align=center;verticalAlign=middle;whiteSpace=wrap;rounded=0;fontSize=24;fontStyle=0;strokeWidth=3;" vertex="1" parent="1">
          <mxGeometry x="460" width="60" height="30" as="geometry" />
        </mxCell>
        <mxCell id="6bZn3hYEf9uluFe8qO5s-31" value="Yes" style="text;html=1;strokeColor=none;fillColor=none;align=center;verticalAlign=middle;whiteSpace=wrap;rounded=0;fontSize=24;fontStyle=0;strokeWidth=3;" vertex="1" parent="1">
          <mxGeometry x="360" y="140" width="60" height="30" as="geometry" />
        </mxCell>
        <mxCell id="6bZn3hYEf9uluFe8qO5s-35" style="edgeStyle=orthogonalEdgeStyle;rounded=0;orthogonalLoop=1;jettySize=auto;html=1;exitX=0.5;exitY=1;exitDx=0;exitDy=0;entryX=0.5;entryY=0;entryDx=0;entryDy=0;fontSize=24;fontStyle=0;strokeWidth=3;" edge="1" parent="1" source="6bZn3hYEf9uluFe8qO5s-34" target="6bZn3hYEf9uluFe8qO5s-1">
          <mxGeometry relative="1" as="geometry" />
        </mxCell>
        <mxCell id="6bZn3hYEf9uluFe8qO5s-34" value="Input Image" style="rounded=0;whiteSpace=wrap;html=1;fontSize=24;fillColor=#f5f5f5;strokeColor=#666666;fontColor=#333333;fontStyle=0;strokeWidth=3;" vertex="1" parent="1">
          <mxGeometry x="240" y="-340" width="200" height="80" as="geometry" />
        </mxCell>
      </root>
    </mxGraphModel>
  </diagram>
</mxfile>
